<mxfile host="Electron" agent="Mozilla/5.0 (X11; Linux x86_64) AppleWebKit/537.36 (KHTML, like Gecko) draw.io/25.0.2 Chrome/128.0.6613.186 Electron/32.2.5 Safari/537.36" version="25.0.2">
  <diagram name="Page-1" id="wS9EBDVNbl1yrAbbTAV1">
    <mxGraphModel dx="1793" dy="2034" grid="1" gridSize="10" guides="1" tooltips="1" connect="1" arrows="1" fold="1" page="1" pageScale="1" pageWidth="1600" pageHeight="900" math="0" shadow="0">
      <root>
        <mxCell id="0" />
        <mxCell id="1" parent="0" />
        <mxCell id="J3nuW8a6T6yVLwqFihnX-17" value="Aa" style="text;strokeColor=none;align=center;fillColor=none;html=1;verticalAlign=middle;whiteSpace=wrap;rounded=0;fontSize=24;" parent="1" vertex="1">
          <mxGeometry x="710" y="960" width="60" height="40" as="geometry" />
        </mxCell>
        <mxCell id="J3nuW8a6T6yVLwqFihnX-18" value="Predicted Labels" style="text;strokeColor=none;align=center;fillColor=none;html=1;verticalAlign=middle;whiteSpace=wrap;rounded=0;" parent="1" vertex="1">
          <mxGeometry x="550" y="-80" width="60" height="40" as="geometry" />
        </mxCell>
        <mxCell id="J3nuW8a6T6yVLwqFihnX-34" value="" style="shape=flexArrow;endArrow=classic;html=1;rounded=0;fillColor=#f8cecc;strokeColor=#b85450;edgeStyle=elbowEdgeStyle;elbow=vertical;" parent="1" target="GkQCIfRcGB_46TWnN1-P-3" edge="1">
          <mxGeometry width="50" height="50" relative="1" as="geometry">
            <mxPoint x="740" y="960" as="sourcePoint" />
            <mxPoint x="740" y="880" as="targetPoint" />
            <Array as="points">
              <mxPoint x="670" y="860" />
            </Array>
          </mxGeometry>
        </mxCell>
        <mxCell id="J3nuW8a6T6yVLwqFihnX-49" value="" style="shape=flexArrow;endArrow=classic;html=1;rounded=0;fillColor=#e1d5e7;strokeColor=#9673a6;" parent="1" target="GkQCIfRcGB_46TWnN1-P-3" edge="1">
          <mxGeometry width="50" height="50" relative="1" as="geometry">
            <mxPoint x="580" y="960" as="sourcePoint" />
            <mxPoint x="580" y="880" as="targetPoint" />
          </mxGeometry>
        </mxCell>
        <mxCell id="J3nuW8a6T6yVLwqFihnX-51" value="Labels" style="text;strokeColor=none;align=center;fillColor=none;html=1;verticalAlign=middle;whiteSpace=wrap;rounded=0;" parent="1" vertex="1">
          <mxGeometry x="710" y="1000" width="60" height="40" as="geometry" />
        </mxCell>
        <mxCell id="J3nuW8a6T6yVLwqFihnX-52" value="Aa" style="text;strokeColor=none;align=center;fillColor=none;html=1;verticalAlign=middle;whiteSpace=wrap;rounded=0;fontSize=24;" parent="1" vertex="1">
          <mxGeometry x="550" y="-40" width="60" height="40" as="geometry" />
        </mxCell>
        <mxCell id="GkQCIfRcGB_46TWnN1-P-3" value="SS Conv SSM" style="rounded=0;whiteSpace=wrap;html=1;fillColor=#dae8fc;strokeColor=#6c8ebf;" parent="1" vertex="1">
          <mxGeometry x="520" y="840" width="120" height="40" as="geometry" />
        </mxCell>
        <mxCell id="GkQCIfRcGB_46TWnN1-P-4" value="" style="verticalLabelPosition=bottom;verticalAlign=top;html=1;shape=mxgraph.basic.smiley" parent="1" vertex="1">
          <mxGeometry x="560" y="960" width="40" height="40" as="geometry" />
        </mxCell>
        <mxCell id="GkQCIfRcGB_46TWnN1-P-5" value="Images" style="text;strokeColor=none;align=center;fillColor=none;html=1;verticalAlign=middle;whiteSpace=wrap;rounded=0;" parent="1" vertex="1">
          <mxGeometry x="550" y="1000" width="60" height="40" as="geometry" />
        </mxCell>
        <mxCell id="GkQCIfRcGB_46TWnN1-P-6" value="SS Conv SSM" style="rounded=0;whiteSpace=wrap;html=1;fillColor=#dae8fc;strokeColor=#6c8ebf;" parent="1" vertex="1">
          <mxGeometry x="520" y="760" width="120" height="40" as="geometry" />
        </mxCell>
        <mxCell id="GkQCIfRcGB_46TWnN1-P-7" value="SS Conv SSM" style="rounded=0;whiteSpace=wrap;html=1;fillColor=#dae8fc;strokeColor=#6c8ebf;" parent="1" vertex="1">
          <mxGeometry x="520" y="600" width="120" height="40" as="geometry" />
        </mxCell>
        <mxCell id="GkQCIfRcGB_46TWnN1-P-8" value="SS Conv SSM" style="rounded=0;whiteSpace=wrap;html=1;fillColor=#dae8fc;strokeColor=#6c8ebf;" parent="1" vertex="1">
          <mxGeometry x="520" y="520" width="120" height="40" as="geometry" />
        </mxCell>
        <mxCell id="GkQCIfRcGB_46TWnN1-P-9" value="SS Conv SSM" style="rounded=0;whiteSpace=wrap;html=1;fillColor=#dae8fc;strokeColor=#6c8ebf;" parent="1" vertex="1">
          <mxGeometry x="520" y="360" width="120" height="40" as="geometry" />
        </mxCell>
        <mxCell id="GkQCIfRcGB_46TWnN1-P-10" value="SS Conv SSM" style="rounded=0;whiteSpace=wrap;html=1;fillColor=#dae8fc;strokeColor=#6c8ebf;" parent="1" vertex="1">
          <mxGeometry x="520" y="280" width="120" height="40" as="geometry" />
        </mxCell>
        <mxCell id="GkQCIfRcGB_46TWnN1-P-11" value="Patch Merge" style="shape=trapezoid;perimeter=trapezoidPerimeter;whiteSpace=wrap;html=1;fixedSize=1;fillColor=#d5e8d4;strokeColor=#82b366;size=20.000000000000227;" parent="1" vertex="1">
          <mxGeometry x="520" y="440" width="120" height="40" as="geometry" />
        </mxCell>
        <mxCell id="GkQCIfRcGB_46TWnN1-P-12" value="Patch Merge" style="shape=trapezoid;perimeter=trapezoidPerimeter;whiteSpace=wrap;html=1;fixedSize=1;fillColor=#d5e8d4;strokeColor=#82b366;size=20.000000000000227;" parent="1" vertex="1">
          <mxGeometry x="520" y="680" width="120" height="40" as="geometry" />
        </mxCell>
        <mxCell id="GkQCIfRcGB_46TWnN1-P-13" value="" style="shape=flexArrow;endArrow=classic;html=1;rounded=0;fillColor=#e1d5e7;strokeColor=#9673a6;" parent="1" source="GkQCIfRcGB_46TWnN1-P-3" target="GkQCIfRcGB_46TWnN1-P-6" edge="1">
          <mxGeometry width="50" height="50" relative="1" as="geometry">
            <mxPoint x="730" y="800" as="sourcePoint" />
            <mxPoint x="730" y="720" as="targetPoint" />
          </mxGeometry>
        </mxCell>
        <mxCell id="GkQCIfRcGB_46TWnN1-P-15" value="" style="shape=flexArrow;endArrow=classic;html=1;rounded=0;fillColor=#e1d5e7;strokeColor=#9673a6;" parent="1" source="GkQCIfRcGB_46TWnN1-P-12" target="GkQCIfRcGB_46TWnN1-P-7" edge="1">
          <mxGeometry width="50" height="50" relative="1" as="geometry">
            <mxPoint x="770" y="650" as="sourcePoint" />
            <mxPoint x="770" y="570" as="targetPoint" />
          </mxGeometry>
        </mxCell>
        <mxCell id="GkQCIfRcGB_46TWnN1-P-16" value="" style="shape=flexArrow;endArrow=classic;html=1;rounded=0;fillColor=#e1d5e7;strokeColor=#9673a6;" parent="1" source="GkQCIfRcGB_46TWnN1-P-6" target="GkQCIfRcGB_46TWnN1-P-12" edge="1">
          <mxGeometry width="50" height="50" relative="1" as="geometry">
            <mxPoint x="770" y="855" as="sourcePoint" />
            <mxPoint x="770" y="775" as="targetPoint" />
          </mxGeometry>
        </mxCell>
        <mxCell id="GkQCIfRcGB_46TWnN1-P-18" value="" style="shape=flexArrow;endArrow=classic;html=1;rounded=0;fillColor=#e1d5e7;strokeColor=#9673a6;" parent="1" edge="1">
          <mxGeometry width="50" height="50" relative="1" as="geometry">
            <mxPoint x="579.86" y="440" as="sourcePoint" />
            <mxPoint x="579.86" y="400" as="targetPoint" />
          </mxGeometry>
        </mxCell>
        <mxCell id="GkQCIfRcGB_46TWnN1-P-19" value="" style="shape=flexArrow;endArrow=classic;html=1;rounded=0;fillColor=#e1d5e7;strokeColor=#9673a6;" parent="1" edge="1">
          <mxGeometry width="50" height="50" relative="1" as="geometry">
            <mxPoint x="579.86" y="520" as="sourcePoint" />
            <mxPoint x="579.86" y="480" as="targetPoint" />
          </mxGeometry>
        </mxCell>
        <mxCell id="GkQCIfRcGB_46TWnN1-P-20" value="" style="shape=flexArrow;endArrow=classic;html=1;rounded=0;fillColor=#e1d5e7;strokeColor=#9673a6;" parent="1" edge="1">
          <mxGeometry width="50" height="50" relative="1" as="geometry">
            <mxPoint x="579.86" y="600" as="sourcePoint" />
            <mxPoint x="579.86" y="560" as="targetPoint" />
          </mxGeometry>
        </mxCell>
        <mxCell id="GkQCIfRcGB_46TWnN1-P-21" value="" style="shape=flexArrow;endArrow=classic;html=1;rounded=0;fillColor=#e1d5e7;strokeColor=#9673a6;" parent="1" edge="1">
          <mxGeometry width="50" height="50" relative="1" as="geometry">
            <mxPoint x="579.86" y="360" as="sourcePoint" />
            <mxPoint x="579.86" y="320" as="targetPoint" />
          </mxGeometry>
        </mxCell>
        <mxCell id="GkQCIfRcGB_46TWnN1-P-22" value="Column-Major Flatten" style="rounded=0;whiteSpace=wrap;html=1;fillColor=#fff2cc;strokeColor=#d6b656;" parent="1" vertex="1">
          <mxGeometry x="520" y="200" width="120" height="40" as="geometry" />
        </mxCell>
        <mxCell id="GkQCIfRcGB_46TWnN1-P-23" value="Mamba" style="rounded=0;whiteSpace=wrap;html=1;fillColor=#dae8fc;strokeColor=#6c8ebf;" parent="1" vertex="1">
          <mxGeometry x="520" y="40" width="120" height="40" as="geometry" />
        </mxCell>
        <mxCell id="GkQCIfRcGB_46TWnN1-P-24" value="" style="shape=flexArrow;endArrow=classic;html=1;rounded=0;fillColor=#e1d5e7;strokeColor=#9673a6;" parent="1" edge="1">
          <mxGeometry width="50" height="50" relative="1" as="geometry">
            <mxPoint x="579.76" y="280" as="sourcePoint" />
            <mxPoint x="579.76" y="240" as="targetPoint" />
          </mxGeometry>
        </mxCell>
        <mxCell id="GkQCIfRcGB_46TWnN1-P-25" value="" style="shape=flexArrow;endArrow=classic;html=1;rounded=0;fillColor=#f8cecc;strokeColor=#b85450;" parent="1" edge="1">
          <mxGeometry width="50" height="50" relative="1" as="geometry">
            <mxPoint x="579.76" y="200" as="sourcePoint" />
            <mxPoint x="579.76" y="160" as="targetPoint" />
          </mxGeometry>
        </mxCell>
        <mxCell id="GkQCIfRcGB_46TWnN1-P-26" value="" style="shape=flexArrow;endArrow=classic;html=1;rounded=0;fillColor=#f8cecc;strokeColor=#b85450;edgeStyle=elbowEdgeStyle;elbow=vertical;" parent="1" target="GkQCIfRcGB_46TWnN1-P-6" edge="1">
          <mxGeometry width="50" height="50" relative="1" as="geometry">
            <mxPoint x="740" y="960" as="sourcePoint" />
            <mxPoint x="740" y="880" as="targetPoint" />
            <Array as="points">
              <mxPoint x="680" y="780" />
            </Array>
          </mxGeometry>
        </mxCell>
        <mxCell id="GkQCIfRcGB_46TWnN1-P-27" value="" style="shape=flexArrow;endArrow=classic;html=1;rounded=0;fillColor=#f8cecc;strokeColor=#b85450;edgeStyle=elbowEdgeStyle;elbow=vertical;" parent="1" target="GkQCIfRcGB_46TWnN1-P-7" edge="1">
          <mxGeometry width="50" height="50" relative="1" as="geometry">
            <mxPoint x="740" y="960" as="sourcePoint" />
            <mxPoint x="740" y="880" as="targetPoint" />
            <Array as="points">
              <mxPoint x="670" y="620" />
            </Array>
          </mxGeometry>
        </mxCell>
        <mxCell id="GkQCIfRcGB_46TWnN1-P-28" value="" style="shape=flexArrow;endArrow=classic;html=1;rounded=0;fillColor=#f8cecc;strokeColor=#b85450;edgeStyle=elbowEdgeStyle;elbow=vertical;" parent="1" target="GkQCIfRcGB_46TWnN1-P-9" edge="1">
          <mxGeometry width="50" height="50" relative="1" as="geometry">
            <mxPoint x="740" y="960" as="sourcePoint" />
            <mxPoint x="740" y="880" as="targetPoint" />
            <Array as="points">
              <mxPoint x="680" y="380" />
            </Array>
          </mxGeometry>
        </mxCell>
        <mxCell id="GkQCIfRcGB_46TWnN1-P-29" value="" style="shape=flexArrow;endArrow=classic;html=1;rounded=0;fillColor=#f8cecc;strokeColor=#b85450;edgeStyle=elbowEdgeStyle;elbow=vertical;" parent="1" target="GkQCIfRcGB_46TWnN1-P-10" edge="1">
          <mxGeometry width="50" height="50" relative="1" as="geometry">
            <mxPoint x="740" y="960" as="sourcePoint" />
            <mxPoint x="740" y="880" as="targetPoint" />
            <Array as="points">
              <mxPoint x="660" y="300" />
            </Array>
          </mxGeometry>
        </mxCell>
        <mxCell id="GkQCIfRcGB_46TWnN1-P-30" value="" style="shape=flexArrow;endArrow=classic;html=1;rounded=0;fillColor=#f8cecc;strokeColor=#b85450;edgeStyle=elbowEdgeStyle;elbow=vertical;" parent="1" target="GkQCIfRcGB_46TWnN1-P-8" edge="1">
          <mxGeometry width="50" height="50" relative="1" as="geometry">
            <mxPoint x="740" y="960" as="sourcePoint" />
            <mxPoint x="740" y="880" as="targetPoint" />
            <Array as="points">
              <mxPoint x="670" y="540" />
            </Array>
          </mxGeometry>
        </mxCell>
        <mxCell id="GkQCIfRcGB_46TWnN1-P-32" value="" style="shape=flexArrow;endArrow=classic;html=1;rounded=0;fillColor=#ffe6cc;strokeColor=#d79b00;" parent="1" edge="1">
          <mxGeometry width="50" height="50" relative="1" as="geometry">
            <mxPoint x="579.79" y="40" as="sourcePoint" />
            <mxPoint x="579.79" as="targetPoint" />
          </mxGeometry>
        </mxCell>
        <mxCell id="d_OAHPBLgNly8nNkNr4D-1" value="" style="rounded=1;whiteSpace=wrap;html=1;fillColor=#f5f5f5;fontColor=#333333;strokeColor=#666666;" vertex="1" parent="1">
          <mxGeometry x="780" y="20" width="360" height="280" as="geometry" />
        </mxCell>
        <mxCell id="d_OAHPBLgNly8nNkNr4D-2" value="" style="edgeStyle=none;orthogonalLoop=1;jettySize=auto;html=1;rounded=0;shape=flexArrow;fillColor=#ffe6cc;strokeColor=#d79b00;" edge="1" parent="1">
          <mxGeometry width="80" relative="1" as="geometry">
            <mxPoint x="840" y="80" as="sourcePoint" />
            <mxPoint x="920" y="80" as="targetPoint" />
            <Array as="points" />
          </mxGeometry>
        </mxCell>
        <mxCell id="d_OAHPBLgNly8nNkNr4D-3" value="Sequence Tensor" style="text;strokeColor=none;align=center;fillColor=none;html=1;verticalAlign=middle;whiteSpace=wrap;rounded=0;" vertex="1" parent="1">
          <mxGeometry x="940" y="60" width="160" height="40" as="geometry" />
        </mxCell>
        <mxCell id="d_OAHPBLgNly8nNkNr4D-4" value="" style="edgeStyle=none;orthogonalLoop=1;jettySize=auto;html=1;rounded=0;shape=flexArrow;fillColor=#e1d5e7;strokeColor=#9673a6;" edge="1" parent="1">
          <mxGeometry width="80" relative="1" as="geometry">
            <mxPoint x="840" y="160" as="sourcePoint" />
            <mxPoint x="920" y="160" as="targetPoint" />
            <Array as="points" />
          </mxGeometry>
        </mxCell>
        <mxCell id="d_OAHPBLgNly8nNkNr4D-5" value="List of &lt;font face=&quot;Courier New&quot;&gt;[C H W]&lt;/font&gt;&amp;nbsp;Image Tensors" style="text;strokeColor=none;align=center;fillColor=none;html=1;verticalAlign=middle;whiteSpace=wrap;rounded=0;" vertex="1" parent="1">
          <mxGeometry x="940" y="140" width="160" height="40" as="geometry" />
        </mxCell>
        <mxCell id="d_OAHPBLgNly8nNkNr4D-6" value="" style="edgeStyle=none;orthogonalLoop=1;jettySize=auto;html=1;rounded=0;shape=flexArrow;fillColor=#f8cecc;strokeColor=#b85450;" edge="1" parent="1">
          <mxGeometry width="80" relative="1" as="geometry">
            <mxPoint x="840" y="240" as="sourcePoint" />
            <mxPoint x="920" y="240" as="targetPoint" />
            <Array as="points" />
          </mxGeometry>
        </mxCell>
        <mxCell id="d_OAHPBLgNly8nNkNr4D-7" value="List of &lt;font face=&quot;Courier New&quot;&gt;[L D]&lt;/font&gt;&amp;nbsp;Sequence Tensors" style="text;strokeColor=none;align=center;fillColor=none;html=1;verticalAlign=middle;whiteSpace=wrap;rounded=0;" vertex="1" parent="1">
          <mxGeometry x="940" y="220" width="160" height="40" as="geometry" />
        </mxCell>
        <mxCell id="d_OAHPBLgNly8nNkNr4D-8" value="In-Context Embedding" style="rounded=0;whiteSpace=wrap;html=1;fillColor=#fff2cc;strokeColor=#d6b656;" vertex="1" parent="1">
          <mxGeometry x="520" y="120" width="120" height="40" as="geometry" />
        </mxCell>
        <mxCell id="d_OAHPBLgNly8nNkNr4D-9" value="" style="shape=flexArrow;endArrow=classic;html=1;rounded=0;fillColor=#f8cecc;strokeColor=#b85450;edgeStyle=elbowEdgeStyle;elbow=vertical;" edge="1" parent="1" target="d_OAHPBLgNly8nNkNr4D-8">
          <mxGeometry width="50" height="50" relative="1" as="geometry">
            <mxPoint x="740" y="960" as="sourcePoint" />
            <mxPoint x="740" y="880" as="targetPoint" />
            <Array as="points">
              <mxPoint x="680" y="140" />
            </Array>
          </mxGeometry>
        </mxCell>
        <mxCell id="d_OAHPBLgNly8nNkNr4D-11" value="" style="shape=flexArrow;endArrow=classic;html=1;rounded=0;fillColor=#ffe6cc;strokeColor=#d79b00;" edge="1" parent="1">
          <mxGeometry width="50" height="50" relative="1" as="geometry">
            <mxPoint x="579.9" y="120" as="sourcePoint" />
            <mxPoint x="579.9" y="80" as="targetPoint" />
          </mxGeometry>
        </mxCell>
      </root>
    </mxGraphModel>
  </diagram>
</mxfile>
